<?xml version="1.0" encoding="UTF-8"?><svg id="Layer_1" xmlns="http://www.w3.org/2000/svg" width="2400" height="1600" viewBox="0 0 2400 1600"><defs><style>.cls-1{fill:#1b3862;}.cls-2{fill:#fff;}</style></defs><rect class="cls-1" width="2400" height="1600"/><polygon class="cls-2" points="627.09 1081.75 1053.01 615.36 667.71 188.31 958.88 188.31 1200.49 453.64 1442.74 188.31 1734.61 188.31 1348.26 615.64 1772.91 1081.75 1473.78 1081.75 1200.64 778.96 926.92 1081.75 627.09 1081.75"/><path class="cls-2" d="m391.24,1251.55c-4.81-19.03-17.05-32.84-41.21-32.84-35.39,0-50.25,31.19-50.25,62.9s14.87,62.98,50.25,62.98c25.65,0,39.83-19.23,42.21-43.27h28.24c-2.38,39.47-30.38,66.86-70.45,66.86-49.48,0-79.14-39.3-79.14-86.57s29.65-86.53,79.14-86.53c37.29.24,66.66,20.76,70.13,56.48h-28.92Z"/><path class="cls-2" d="m523.29,1293.84c-1.01-16.6-12.32-31.67-30.14-31.67s-30.78,13.9-31.43,31.67h61.57Zm-61.57,17.37c0,18.83,10.18,35.43,32.12,35.43,15.31,0,24.64-6.71,29.17-19.83h25.01c-5.78,26.1-27.95,40.68-54.17,40.68-37.53,0-58.53-26.22-58.53-62.94,0-34.1,22.3-63.22,57.85-63.22,37.73,0,60.92,34.06,56.48,69.89h-87.91Zm108.59,53.04h26.38v-165.31h-26.38v165.31Zm133.8-70.41c-.97-16.6-12.36-31.67-30.14-31.67s-30.82,13.9-31.43,31.67h61.57Zm-61.57,17.37c0,18.83,10.18,35.43,32.2,35.43,15.23,0,24.48-6.71,29.09-19.84h25c-5.86,26.1-27.95,40.68-54.09,40.68-37.53,0-58.58-26.22-58.58-62.94,0-34.1,22.18-63.22,57.81-63.22,37.73,0,60.8,34.06,56.43,69.89h-87.86Zm166.76-49.04c-22.26,0-33.57,16.93-33.57,42.38,0,24.08,12.24,42.05,33.57,42.05,24.04,0,33.09-21.29,33.09-42.05,0-21.81-11.39-42.38-33.09-42.38Zm-59.02-63.22h26.34v61.16h.52c7.15-11.59,22.18-18.78,35.59-18.78,37.77,0,56.03,28.76,56.03,63.63,0,32.2-16.2,62.53-51.59,62.53-16.24,0-33.53-3.92-41.45-19.63h-.45v16.4h-25v-165.31Zm141.87,45.61h24.81v23.11h.4c2.99-12.73,18.79-26.3,34.94-26.3,6.02,0,7.68.45,9.98.65v25.45c-3.72-.48-7.68-1.17-11.35-1.17-18.06,0-32.44,14.62-32.44,40.96v57h-26.34v-119.7Zm90.65,0h26.42v119.7h-26.42v-119.7Zm0-45.61h26.42v25h-26.42v-25Zm48.84,45.61h19.91v-35.87h26.38v35.87h23.75v19.63h-23.75v63.91c0,10.87.81,16.48,12.72,16.48,3.68,0,7.39,0,11.03-.97v20.44c-5.78.4-11.31,1.33-17.09,1.33-27.55,0-32.64-10.7-33.04-30.54v-70.65h-19.91v-19.63Zm85.76,0h28.89l31.23,89.36h.48l30.34-89.36h27.55l-46.58,126.16c-8.61,21.53-14.87,40.96-42.37,40.96-6.18,0-12.24-.48-18.22-1.33v-22.26c4.2.65,8.32,1.62,12.48,1.62,12.28,0,15.23-6.51,18.54-16.72l2.95-9.21-45.29-119.21Z"/><path class="cls-2" d="m1433.07,1249.94c-4.93-19.03-17.13-32.84-41.29-32.84-35.35,0-50.22,31.19-50.22,62.9s14.87,62.98,50.22,62.98c25.69,0,39.83-19.23,42.17-43.27h28.24c-2.38,39.51-30.3,66.9-70.41,66.9-49.48,0-79.18-39.35-79.18-86.61s29.69-86.53,79.18-86.53c37.33.23,66.66,20.76,70.17,56.48h-28.88Z"/><path class="cls-2" d="m1485.95,1243h24.8v23.11h.48c2.99-12.73,18.79-26.3,34.94-26.3,6.06,0,7.68.45,10.02.65v25.45c-3.88-.48-7.68-1.17-11.39-1.17-18.02,0-32.48,14.62-32.48,40.96v57h-26.38v-119.7Z"/><path class="cls-2" d="m1682.84,1362.7h-25.85v-16.69h-.44c-6.54,11.96-20.84,19.92-34.1,19.92-31.23,0-44.64-15.75-44.64-47.02v-75.91h26.5v73.4c0,21.01,8.52,28.68,22.82,28.68,21.98,0,29.41-14.14,29.41-32.64v-69.44h26.3v119.7Z"/><rect class="cls-2" x="1713.91" y="1242.99" width="26.42" height="119.7"/><rect class="cls-2" x="1713.91" y="1197.39" width="26.42" height="25"/><path class="cls-2" d="m1793.41,1324.23c1.33,15.27,12.89,20.84,26.99,20.84,9.94,0,27.39-2.06,26.62-15.75-.69-13.82-19.92-15.47-39.1-19.92-19.35-4.08-38.38-11.07-38.38-35.35,0-26.22,28.2-34.26,49.93-34.26,24.56,0,46.74,10.14,50.09,36.72h-27.59c-2.26-12.44-12.72-15.92-24.32-15.92-7.63,0-21.73,1.9-21.73,12.28,0,12.93,19.43,14.79,38.9,19.19,19.15,4.44,38.62,11.31,38.62,34.98,0,28.4-28.76,38.86-53.41,38.86-30.18,0-52.6-13.41-53.12-41.69h26.5Z"/><path class="cls-2" d="m1946.72,1239.76c-35.55,0-57.77,29.12-57.77,63.22,0,36.72,21.01,62.94,58.5,62.94,26.22,0,48.36-14.59,54.21-40.68h-25.05c-4.64,13.13-13.77,19.83-29.17,19.83-21.93,0-32.24-16.6-32.24-35.43h88.1c4.32-35.83-18.78-69.88-56.59-69.88Zm-31.51,52.51c.77-17.77,13.17-31.67,31.51-31.67s29.25,15.07,30.14,31.67h-61.65Z"/><path class="cls-2" d="m2049.08,1324.23c1.42,15.27,12.89,20.84,27.03,20.84,9.94,0,27.31-2.06,26.66-15.75-.69-13.81-19.96-15.47-39.19-19.91-19.43-4.08-38.42-11.07-38.42-35.35,0-26.22,28.32-34.26,50.01-34.26,24.56,0,46.74,10.14,50.05,36.72h-27.59c-2.3-12.44-12.68-15.92-24.28-15.92-7.68,0-21.78,1.9-21.78,12.28,0,12.93,19.47,14.79,38.86,19.19,19.23,4.44,38.66,11.31,38.66,34.98,0,28.4-28.76,38.86-53.36,38.86-30.14,0-52.64-13.41-53.04-41.69h26.38Z"/></svg>